<svg xmlns="http://www.w3.org/2000/svg" xmlns:xlink="http://www.w3.org/1999/xlink"><defs><style>
    .sprite-symbol-usage {display: none;}
    .sprite-symbol-usage:target {display: inline;}
  </style><symbol viewBox="0 0 32 32" id="github">
<title>github</title>
<path d="M16 0.395c-8.836 0-16 7.163-16 16 0 7.069 4.585 13.067 10.942 15.182 0.8 0.148 1.094-0.347 1.094-0.77 0-0.381-0.015-1.642-0.022-2.979-4.452 0.968-5.391-1.888-5.391-1.888-0.728-1.849-1.776-2.341-1.776-2.341-1.452-0.993 0.11-0.973 0.11-0.973 1.606 0.113 2.452 1.649 2.452 1.649 1.427 2.446 3.743 1.739 4.656 1.33 0.143-1.034 0.558-1.74 1.016-2.14-3.554-0.404-7.29-1.777-7.29-7.907 0-1.747 0.625-3.174 1.649-4.295-0.166-0.403-0.714-2.030 0.155-4.234 0 0 1.344-0.43 4.401 1.64 1.276-0.355 2.645-0.532 4.005-0.539 1.359 0.006 2.729 0.184 4.008 0.539 3.054-2.070 4.395-1.64 4.395-1.64 0.871 2.204 0.323 3.831 0.157 4.234 1.026 1.12 1.647 2.548 1.647 4.295 0 6.145-3.743 7.498-7.306 7.895 0.574 0.497 1.085 1.47 1.085 2.963 0 2.141-0.019 3.864-0.019 4.391 0 0.426 0.288 0.925 1.099 0.768 6.354-2.118 10.933-8.113 10.933-15.18 0-8.837-7.164-16-16-16z" />
</symbol><symbol viewBox="0 0 35 35" id="search">
<title>search</title>
<path d="M13.877 20.439c3.623 0 6.563-2.939 6.563-6.563s-2.939-6.563-6.563-6.563-6.563 2.939-6.563 6.563 2.939 6.563 6.563 6.563zM22.627 20.439l7.246 7.246-2.188 2.188-7.246-7.246v-1.162l-0.41-0.41c-1.641 1.436-3.828 2.256-6.152 2.256-5.264 0-9.502-4.17-9.502-9.434s4.238-9.502 9.502-9.502 9.434 4.238 9.434 9.502c0 2.324-0.82 4.512-2.256 6.152l0.41 0.41h1.162z" />
</symbol><symbol viewBox="0 0 35 35" id="sms_failed">
<title>sms_failed</title>
<path d="M18.936 14.561v-5.811h-2.871v5.811h2.871zM18.936 20.439v-2.939h-2.871v2.939h2.871zM29.189 2.939c1.572 0 2.871 1.299 2.871 2.871v17.5c0 1.572-1.299 2.939-2.871 2.939h-20.439l-5.811 5.811v-26.25c0-1.572 1.299-2.871 2.871-2.871h23.379z" />
</symbol><symbol viewBox="0 0 35 35" id="star_border">
<title>star_border</title>
<path d="M17.5 22.49l5.469 3.281-1.436-6.221 4.854-4.238-6.426-0.547-2.461-5.879-2.461 5.879-6.426 0.547 4.854 4.238-1.436 6.221zM32.061 13.467l-7.93 6.904 2.393 10.254-9.023-5.469-9.023 5.469 2.393-10.254-7.93-6.904 10.459-0.889 4.102-9.639 4.102 9.639z" />
</symbol></defs><use id="github-usage" xlink:href="#github" class="sprite-symbol-usage" /><use id="search-usage" xlink:href="#search" class="sprite-symbol-usage" /><use id="sms_failed-usage" xlink:href="#sms_failed" class="sprite-symbol-usage" /><use id="star_border-usage" xlink:href="#star_border" class="sprite-symbol-usage" /></svg>